<?xml version="1.0" encoding="utf-8"?>
<!-- Generator: Adobe Illustrator 27.3.1, SVG Export Plug-In . SVG Version: 6.00 Build 0)  -->
<svg version="1.1" id="Layer_1" xmlns="http://www.w3.org/2000/svg" xmlns:xlink="http://www.w3.org/1999/xlink" x="0px" y="0px"
	 viewBox="0 0 413.7 123.49" style="enable-background:new 0 0 413.7 123.49;" xml:space="preserve">
<style type="text/css">
	.st0{fill:#0BBF64;}
	.st1{font-family:'SVN-GilroyMedium';}
	.st2{font-size:20.457px;}
</style>
<path class="st0" d="M61.39,38.91c-3-6.65-6-13.3-9-19.95c-0.36-0.8-0.74-1.66-0.61-2.54c0.17-1.21,1.22-2.08,2.22-2.78
	c13.33-9.38,31.53-11.37,46.57-5.1s26.44,20.6,29.16,36.67c2.72,16.07-3.32,33.35-15.46,44.22c-6.57,5.88-14.81,9.79-23.45,11.42
	c-4.35,0.82-8.8,1.07-13.21,0.72c-9.66-0.79-19.21-3.53-26.53-10.09c-4.9-4.39-8.7-9.87-12.03-15.55
	C26.39,54.39,20.02,29.85,11.24,6.47c7.21-0.08,14.43-0.15,21.64-0.23c1.43-0.02,3,0.01,4.11,0.91c0.9,0.72,1.32,1.87,1.71,2.95
	c3.73,10.52,7.46,21.04,11.19,31.56c2.61,7.38,5.28,14.85,9.72,21.29S70.55,74.8,78.25,76.21c10.91,1.99,22.66-5.39,25.81-16.01
	s-2.51-23.09-12.5-27.9s-23.12-1.56-29.9,7.22C61.57,39.31,61.48,39.11,61.39,38.91z"/>
<path class="st0" d="M251.49,23.38c9.68,6.38,4.59,15.61,8.45,23.03c-4.85,0.55-8.99,1.03-13.54,1.55c0.21-0.02-0.03-9.04-0.09-9.88
	c-0.16-2.06-0.55-4.13-1.31-6.05c-0.58-1.46-1.31-2.97-2.34-4.17c-0.14-0.16-0.28-0.32-0.48-0.39c-1.21-0.42-2.09,2.86-2.2,3.6
	c-0.43,2.81,0.03,5.91,0.31,8.72c0.06,0.6,0.78,6.82,0.92,6.82c-5.24,0-10.02,0-15.4,0c3.37-15.02,3.8-29.77,1.08-44.96
	c7.21,0,14.53-0.15,21.84,0.06c4.45,0.13,8.1,2.32,9.63,6.56c1.61,4.45,1.18,8.9-2.59,12.38C254.82,21.52,253.56,22.07,251.49,23.38
	z M240.12,19.42c0.08,0.16,0.2,0.31,0.4,0.44c1.73,1.14,2.58,0,3.45-1.38c0.61-0.95,1.26-1.86,1.88-2.8c0.72-1.07,1.5-2.39,0.9-3.69
	c-0.56-1.21-1.9-1.94-3.21-1.54c-1.2,0.37-1.88,1.45-2.22,2.6c-0.42,1.41-0.69,2.9-0.96,4.34
	C240.25,18.05,239.84,18.82,240.12,19.42z"/>
<path d="M22.2,67.22c5.36,8.7,10.57,17.03,15.59,25.48c0.74,1.25,1.13,3.29,0.65,4.58c-3.26,8.73-6.8,17.36-10.33,26.21
	c-9.24,0-18.2,0-28.11,0C7.59,104.27,14.99,85.51,22.2,67.22z"/>
<path class="st0" d="M371.96,27.41c2.24,6.48-0.35,14.3-6.01,18.16c-5.14,3.51-12.39,3.48-17.6,0.12c-2.43-1.57-4.04-4.04-5.36-6.58
	c-1.41-2.72-2.36-5.68-2.81-8.71c-0.78-5.25-0.08-10.68,1.85-15.63c1.59-4.06,4.04-7.85,7.42-10.6c3.38-2.75,7.74-4.41,12.09-4.14
	s8.62,2.61,10.84,6.36c2.21,3.76,2.09,8.88-0.64,12.28c-1.21,1.51-2.95,2.68-4.88,2.86c-1.76,0.16-3.58-0.54-4.76-1.85
	c-0.89-0.98-1.47-2.35-1.5-3.7c-0.01-0.67,0.07-1.39,0.47-1.95c0.44-0.62,1.2-0.84,1.81-1.24c0.96-0.63,2.97-1.99,2.11-3.36
	c-0.63-1-2.25-1.37-3.35-1.37c-1.33,0-2.59,0.68-3.52,1.64s-1.54,2.16-2.03,3.4c-1.09,2.75-1.6,5.72-1.5,8.68
	c0.07,1.9,0.4,3.82,1.22,5.54c0.82,1.72,2.18,3.22,3.92,4c2.07,0.92,4.52,0.73,6.62-0.11S370.29,28.95,371.96,27.41z"/>
<path class="st0" d="M150.56,2.22c6.35-0.58,12.1-1.66,17.77-1.39c3.05,0.15,6.44,2.11,8.88,4.18c5.64,4.78,6.83,15.97,2.85,22.22
	c-3.46,5.44-8.44,7.04-14.81,5.25c-2.29,5.25,1.59,9.29,2.37,13.88c-5.54,0-10.88,0-16.99,0C153.31,31.51,153.99,16.98,150.56,2.22z
	 M164.27,23.83c0.22,0.06,0.49,0.03,0.81-0.13c1.46-0.72,2.78-1.73,3.87-2.93c1.01-1.12,1.83-2.44,2.16-3.91s0.13-3.09-0.75-4.32
	c-0.61-0.85-1.61-1.5-2.66-1.43c-1.54,0.1-2.59,1.61-3.19,3.03c-0.89,2.13-1.34,4.45-1.3,6.76
	C163.23,21.86,163.38,23.59,164.27,23.83z"/>
<path class="st0" d="M191.3,1.68c8.48,0,16.97,0.01,25.45,0.01c0,3.48,0,6.97,0,10.45c-2.87-1.65-6.33-2.28-9.6-1.74
	c-1.37,0.22-2.78,0.7-3.67,1.76c-1.14,1.38-1.09,3.49-0.2,5.04s2.48,2.6,4.15,3.23c0.91,0.34,1.96,0.57,2.82,0.13
	c0.16,1.33,0.31,2.65,0.47,3.98c0.03,0.27,0.06,0.57-0.09,0.8c-0.14,0.21-0.4,0.31-0.65,0.37c-1.77,0.45-3.82-0.16-5.38,0.81
	c-1.42,0.88-1.85,2.73-1.96,4.39c-0.12,1.85,0.12,3.94,1.55,5.11c1.01,0.82,2.39,1.01,3.69,0.97c3.25-0.08,6.46-1.32,8.93-3.44
	c0.36,4.26,0.72,8.51,1.08,12.77c-8.49,0.05-16.97,0.09-25.46,0.14c-0.45,0-1.52,0.22-1.86-0.15c-0.4-0.44-0.16-1.77-0.13-2.3
	C191.25,29.92,191.53,15.79,191.3,1.68z"/>
<path class="st0" d="M306.07,1.6c8.35,0,16.87,0,25.84,0c0,3.01,0,6.45,0,10.41c-1.35-0.48-2.65-0.91-3.94-1.39
	c-3.08-1.18-6.41-2.1-8.84,0.69c-1.36,1.56-1.97,4.32-0.56,6.04c1.72,2.1,4.74,3.27,6.95,4.77c0,0.29,0,1.87,0,3.59
	c0-0.22-4.26,0.61-4.62,0.69c-2.43,0.52-3.19,2.61-3.02,4.96c0.22,2.99,1.41,5.86,4.77,6.29c3.6,0.46,6.66-2.6,9.26-4.62
	c0.47,4.38,0.91,8.47,1.44,13.38c-9.55,0-18.78,0-27.27,0C306.07,32.18,306.07,17.25,306.07,1.6z"/>
<path class="st0" d="M413.61,20.69c-1.66-1.93-3.32-3.86-4.98-5.79c-0.78-0.9-1.55-1.81-2.33-2.71c-0.44-0.51-0.77-1.11-1.21-1.62
	c-0.92-1.07-2.31-0.73-2.61,0.6c-2.3,10.23-0.06,20.65,1.19,30.86c0.17,1.4,0.32,2.81,0.44,4.22c-4.73,0-9.3,0-14.47,0
	c-0.29,0,1.22-13.18,1.35-14.34c0.6-5.09,0.96-10.23,0.26-15.33c-0.26-1.9-0.58-4.08-1.31-5.87c-0.81,0.4-1.61,1.62-2.25,2.31
	c-0.77,0.83-1.54,1.65-2.31,2.48c-1.44,1.55-2.88,3.09-4.32,4.64c0-5.78,0-11.74,0-18.34c10.46,0,20.49,0,30.96,0
	C412.51,7.56,413.04,13.82,413.61,20.69z"/>
<path class="st0" d="M297.26,1.75c-0.01,3.32-0.01,6.64-0.02,9.96c-2.59-0.88-5.21-1.76-7.94-1.97c-1.79-0.14-3.7,0.05-5.17,1.09
	c-1.45,1.03-2.29,2.88-2.11,4.65c0.18,1.77,1.37,3.41,3,4.13c1.43,0.63,3.06,0.57,4.61,0.79c0.23,0.03,0.48,0.08,0.64,0.26
	c0.17,0.18,0.18,0.45,0.19,0.7c0.04,1.36,0.08,2.73,0.13,4.09c-2.04,0.4-4.04,0.99-5.96,1.77c-0.63,0.25-1.27,0.55-1.67,1.1
	c-0.41,0.56-0.5,1.29-0.54,1.99c-0.34,5.36,0.79,10.69,1.92,15.94c-2.69,0.04-5.38,0.06-8.08,0.05c-1.35,0-2.69-0.01-4.04-0.02
	c-1.38-0.01-2.02,0.12-2.02-1.47c0.01-14.36,0.02-28.71,0.03-43.07C279.24,1.75,288.25,1.75,297.26,1.75z"/>
<path d="M148.7,56.91c8.01,0.68,15.24,1.15,22.44,1.98c2.98,0.35,5.02,2.33,5.69,5.45c0.74,3.46,0.07,6.32-2.5,7.47
	c0.49,3.25,1.8,6.22,1.07,8.56c-0.95,3.06-3.98,4.74-7.59,4.68c-4.84-0.09-9.68-0.02-15.4-0.02c0-5.73,0.12-10.69-0.05-15.64
	c-0.09-2.63,0.6-5.58-2.64-7.37C148.95,61.58,149.15,59.4,148.7,56.91z M157.94,70.16c0.59,0.44,1.67,0.29,2.44,0.33
	c1.37,0.07,2.76,0.04,4.11-0.24c0.97-0.2,1.98-0.59,2.52-1.42c0.48-0.73,0.49-1.67,0.4-2.55c-0.11-1.01-0.35-2-0.71-2.94
	c-0.04-0.1-0.08-0.2-0.16-0.27C166.44,63,166.3,63,166.17,63c-3.11,0.02-6.23,0.04-9.34,0.05c0.14,2.15,0.39,4.29,0.72,6.42
	C157.6,69.79,157.74,70.01,157.94,70.16z M156.92,75.36c1.14,2.07,1.79,4.34,2.5,4.36c2.44,0.08,5.39,0.04,7.23-1.24
	c1.67-1.16,0.68-3.59-1.75-3.78C162.76,74.52,160.56,75.02,156.92,75.36z"/>
<path d="M383.98,65.4c0,0.01,0,0.02,0,0.03c-5.52,0.29-11.05,0.57-16.57,0.86c-0.43,0.02-0.89,0.06-1.2,0.36
	c-0.59,0.58-0.11,1.62,0.56,2.11c0.79,0.57,1.77,0.81,2.73,0.98c3.26,0.59,6.6,0.64,9.86,1.21c1.92,0.34,3.88,0.89,5.37,2.14
	c1.85,1.56,2.75,4.17,2.26,6.54c-0.22,1.05-0.71,2.08-1.53,2.78c-1.27,1.08-3.06,1.22-4.72,1.28c-4.24,0.17-8.49,0.18-12.73,0.15
	c-1.02-0.01-2.04-0.02-3.06-0.03c-0.97-0.01-2.29,0.2-3.23-0.05c-0.61-0.16-0.51-0.1-0.56-0.81c-0.04-0.55-0.07-1.11-0.1-1.66
	c-0.02-0.25-0.2-2.99-0.18-2.99c5.25-0.56,10.51-1.12,15.76-1.67c0.73-0.08,1.65-0.34,1.7-1.07c0.03-0.39-0.24-0.76-0.59-0.96
	c-0.34-0.2-0.75-0.25-1.14-0.31c-4.03-0.52-8.13-0.59-12.1-1.46c-1.01-0.22-2.04-0.51-2.81-1.19c-1.23-1.09-1.49-2.88-1.62-4.52
	c-0.19-2.38-0.2-4.98,1.24-6.89c1.25-1.65,3.33-2.43,5.34-2.93c5.57-1.38,11.52-1.22,17.01,0.45c0.09,0.03,0.18,0.06,0.24,0.12
	c0.09,0.1,0.1,0.24,0.1,0.38C383.99,60.63,383.98,63.02,383.98,65.4z"/>
<path d="M191.49,83.5c-2.43,0-4.56,0-6.55,0c0-8.21,0-15.99,0-24.67c6.82,0,13.12-0.41,19.33,0.17c3.3,0.31,5.23,3.23,5.69,6.8
	c0.57,4.49-2.27,6.34-6,7.71c1.86,3.91,3.6,7.56,5.58,11.73c-3.41,0-6.15,0-8.97,0c-3.41-2.45,0.25-10.99-8.29-9.78
	C192,78.3,191.75,80.83,191.49,83.5z M193.51,70.44c0.44,0.33,1.13,0.22,1.8,0.04c1.81-0.5,3.61-1,5.42-1.49
	c0.33-0.09,0.68-0.2,0.91-0.46c0.2-0.24,0.26-0.56,0.3-0.86c0.21-1.41,0.22-2.96-0.59-4.14c-0.79-1.15-2.24-1.72-3.64-1.75
	c-1.4-0.03-2.76,0.4-4.07,0.88c-0.34,0.13-0.71,0.27-0.92,0.57c-0.25,0.35-0.24,0.81-0.22,1.24c0.1,1.74,0.3,3.47,0.59,5.19
	C193.15,70.04,193.3,70.29,193.51,70.44z"/>
<path d="M300.07,84.3c-4.41,2.38-6.84,1.11-8.8-2.47c-1.59-2.89-3.67-5.52-5.48-8.17c-5.85,1.9-4.63,6.55-5.21,11
	c-1.68,0.12-3.41,0.24-5.92,0.41c-0.68-8.89-1.33-17.31-2.01-26.12c3.76,0,6.68,0,10.02,0c0.23,2.22,0.47,4.49,0.75,7.27
	c4.7-2.52,6.18-10.43,14.19-6.64c-2.61,3.06-5.14,6.04-8.02,9.41C293,73.98,296.44,79,300.07,84.3z"/>
<path d="M349.32,58.65c1.39,8.65,2.72,16.91,4.03,25.06c-4.33,1.93-4.33,1.93-7.26-5.07c-3.71,0.42-8.52-2.68-10.5,3.75
	c-0.2,0.65-2.64,0.61-4.99,1.09c0.74-7.83,1.3-15.03,2.21-22.18c0.12-0.99,1.85-2.46,2.91-2.53
	C340.16,58.49,344.63,58.65,349.32,58.65z M345.06,73.29c-0.38-1.71-0.76-3.42-1.13-5.13c-0.02-0.08-0.04-0.16-0.1-0.21
	c-0.05-0.04-0.12-0.06-0.18-0.07c-1.13-0.2-2.3-0.22-3.44-0.07c-0.44,0.06-0.91,0.16-1.22,0.48c-0.37,0.38-0.42,0.95-0.43,1.48
	c-0.01,0.86,0.05,1.73,0.18,2.58c0.16,1.01,0.04,1.45,1.12,1.37C340.31,73.68,345.04,73.19,345.06,73.29z"/>
<path d="M259.01,78.38c-3.89,0.72-8.7-2.26-10.41,3.99c-0.17,0.62-2.6,0.63-4.93,1.12c0.7-7.91,1.24-15.11,2.07-22.29
	c0.11-0.92,1.61-2.35,2.52-2.4c4.62-0.25,9.26-0.11,14.09-0.11c1.39,8.69,2.71,16.95,4.02,25.12
	C261.99,85.62,261.99,85.62,259.01,78.38z M258.04,73.36c-0.84-3,0.31-6.57-4-5.94c-3.75,0.55-2.48,3.64-2.81,6.4
	C253.57,73.66,255.38,73.54,258.04,73.36z"/>
<path d="M223.45,66.22c2.81,0,5.62,0,8.84,0c0.21,2.42,0.36,4.18,0.4,4.74c-1.79,4.48-9.85,0.46-7.85,8.01c3.56,0,6.88,0,10.59,0
	c0.47,1.88,0.96,3.79,1.53,6.05c-6.78,0-13.09,0-19.76,0c0-8.67,0-17.18,0-26.56c5.95,0,11.85-0.13,17.74,0.14
	c0.85,0.04,1.61,2.02,2.87,3.72c-5.62,0.59-10.1,1.06-14.57,1.53C223.31,64.65,223.38,65.43,223.45,66.22z"/>
<path d="M313.66,75.13c-0.1,0.15-0.1,0.35-0.1,0.53c0,3.11-0.01,6.21-0.01,9.32c-1.74,0.07-3.47,0.13-5.21,0.2
	c-0.69,0.03-1.92,0.32-2.56,0.08c-0.61-0.23-0.6-0.87-0.59-1.46c0.03-8.32,0.05-16.65,0.08-24.97c5.26-0.12,10.52-0.22,15.77-0.03
	c1.09,0.04,2.29,0.14,3.05,0.93c0.68,0.7,0.8,1.77,0.74,2.75c-0.06,0.97-0.14,1.92-0.13,2.89c-0.97,0.31-2.24,0.23-3.27,0.31
	c-1.24,0.1-2.48,0.21-3.71,0.31c-1.6,0.13-3.32,0.31-4.54,1.35c-0.1,0.09-0.2,0.19-0.24,0.32c-0.04,0.15,0.03,0.3,0.1,0.44
	c0.5,0.87,1.48,1.31,2.43,1.62c0.95,0.3,1.96,0.54,2.73,1.17c0.4,0.33,0.73,0.81,0.65,1.32c-0.07,0.44-0.43,0.78-0.78,1.04
	c-1.08,0.81-2.36,1.35-3.69,1.56c-0.25,0.04-0.54,0.08-0.69,0.29C313.67,75.11,313.67,75.12,313.66,75.13z"/>
<path d="M393.1,57.34c6.87,0.37,13.73,0.73,20.6,1.1c0,2.42,0,4.83,0,7.24c-1.21,0.26-2.42,0.51-3.63,0.77
	c-0.73,0.16-2.61,0.13-2.66,1.08c-0.09,1.55-0.85,17.39-1,17.39c-1.96,0.11-4.09,0.49-6.05,0.35c-0.72-0.05-0.58,0.08-0.67-0.64
	c-0.06-0.49,0-1.02,0-1.52c0-1.01,0-2.02,0-3.03c0-4.1,0-8.2,0-12.3c-2.2-0.17-4.39-0.34-6.59-0.51
	C393.1,63.97,393.1,60.66,393.1,57.34z"/>
<text transform="matrix(1 0 0 1 150.5603 116.9923)" class="st1 st2">VÌ SỨC KHỎE CỘNG ĐỒNG</text>
</svg>
