<svg xmlns="http://www.w3.org/2000/svg" viewBox="0 0 512 512" width="100" height="100">
  <path d="M256 32C150 32 32 77.25 32 176c0 33.13 39.38 63.75 104 84.88V480c0 17.62 14.38 32 32 32h256c17.62 0 32-14.38 32-32V260.9c64.63-21.13 104-51.75 104-84.88C480 77.25 362 32 256 32zM128 234.8V432h256V234.8C339.5 254.5 299.8 272 256 272S172.5 254.5 128 234.8zM432 176c0 22.12-28.25 48-80 65.25C376 214.5 416 193.6 416 176c0-44.13-64-80-160-80S96 131.9 96 176c0 17.62 40 38.5 64 65.25C132.3 224 104 198.1 104 176c0-61.75 107.5-112 152-128.88C324.5 64 432 114.3 432 176z"/>
  <path d="M256 0c141.4 0 256 93.13 256 208s-114.6 208-256 208S0 322.9 0 208 114.6 0 256 0zm0 384c123.7 0 224-85.96 224-176S379.7 32 256 32 32 117.1 32 208 132.3 384 256 384z"/>
</svg>
