<svg viewBox="0 0 1024 1068.466" xmlns="http://www.w3.org/2000/svg" fill="currentColor" stroke="currentColor">
    <path d="M555.69 879.49l-79.643-57.753-238.98-173.898 40.142-55.343L555.69 795.02l39.596-28.717 238.888-173.807L874.36 647.7 635.427 821.554zm304.015 165.843h-695.41C73.557 1045.333 0 971.776 0 881.038v-121.06h496.07v68.267H68.268v52.793c0 53.035 42.993 96.028 96.028 96.028h695.41c53.014-.052 95.977-43.014 96.028-96.023v-52.798H615.31v-68.267H1024v121.06c-.104 90.696-73.6 164.192-164.285 164.295h-.01zM615.31 828.245v-68.267h244.395c29.086-.332 52.564-23.874 52.793-52.953v-.022c-.13-29.068-23.71-52.585-52.79-52.61H164.296c-29.157 0-52.793 23.635-52.793 52.792.332 29.086 23.874 52.564 52.953 52.793h331.616v68.267H164.296c-66.59-.51-120.446-54.303-121.06-120.82v-.057-.182c0-66.86 54.2-121.06 121.06-121.06h695.41c66.86 0 121.06 54.2 121.06 121.06s-54.2 121.06-121.06 121.06zM164.295 412.273H859.25c66.86 0 121.06 54.2 121.06 121.06s-54.2 121.06-121.06 121.06H164.295c-66.86 0-121.06-54.2-121.06-121.06s54.2-121.06 121.06-121.06zM859.25 586.126c29.157 0 52.793-23.636 52.793-52.793s-23.636-52.793-52.793-52.793H164.295c-29.157 0-52.793 23.636-52.793 52.793s23.636 52.793 52.793 52.793zM381.838 21.333h260.78C853.2 21.85 1023.74 192.553 1024 403.147v79.668H0V403.17C.26 192.39 171.06 21.59 381.814 21.334h.024zM955.733 414.55v-11.38C955.475 230.24 815.473 90.09 642.618 89.6h-260.78C208.76 89.86 68.525 230.095 68.266 403.147v11.403zm-660.82-64.172h-86.927V282.11h86.926zm260.323 0h-86.47V282.11h86.47zm260.778 0h-86.926V282.11h86.926zM425.074 219.76h-86.926v-68.266h86.926zm260.778 0h-86.926v-68.266h86.926z"/>
</svg>
