<svg viewBox="0 0 1034 1060.382" xmlns="http://www.w3.org/2000/svg" stroke="currentColor" fill="currentColor">
    <path d="M96.312 21.333h937.228v1024H96.312zM965.395 89.48H164.458v887.708h800.937zM260.77 306.635H0V238.49h260.77zm0 260.77H0V499.26h260.77zm0 260.77H0V760.03h260.77zM608.312 238.49c90.828 0 164.458 73.63 164.458 164.458s-73.63 164.458-164.458 164.458-164.458-73.63-164.458-164.458c.103-90.786 73.672-164.354 164.448-164.458h.01zm0 260.77c53.192 0 96.312-43.12 96.312-96.312s-43.12-96.312-96.312-96.312S512 349.756 512 402.948c.052 53.17 43.14 96.26 96.307 96.312h.005zm-.09 0c114.86.13 207.94 93.208 208.07 208.058v120.858H400.695V707.33c.205-114.64 92.93-207.555 207.477-208.07h.05zm140.016 260.77v-52.7c0-77.152-62.545-139.697-139.698-139.697S468.842 630.178 468.842 707.33v52.7z"/>
</svg>
